<?xml version="1.0" encoding="UTF-8"?>
<svg id="Layer_2" data-name="Layer 2" xmlns="http://www.w3.org/2000/svg" viewBox="0 0 293.31 45.82">
  <defs>
    <style>
      .cls-1 {
        fill: #fff;
      }

      .cls-1, .cls-2 {
        stroke-width: 0px;
      }

      .cls-2 {
        fill: #699;
      }
    </style>
  </defs>
  <g id="Layer_1-2" data-name="Layer 1">
    <g>
      <path class="cls-2" d="M17.28,21.44h-.13l-2.5,23.87H4.99L0,.51h6.85l3.71,35.33h.13L14.02.51h6.78l3.46,35.58h.13L27.97.51h6.14l-4.99,44.8h-9.34l-2.5-23.87Z"/>
      <path class="cls-2" d="M59.45,45.31h-7.1l-1.22-8.13h-8.64l-1.22,8.13h-6.46L41.98.51h10.3l7.17,44.8ZM43.39,31.1h6.78l-3.33-22.65h-.13l-3.33,22.65Z"/>
      <path class="cls-2" d="M66.17,30.46L57.28.51h7.36l5.31,20.41h.13L75.39.51h6.72l-8.9,29.95v14.85h-7.04v-14.85Z"/>
      <path class="cls-2" d="M92.8.51h21.76v6.4h-7.36v38.4h-7.04V6.91h-7.36V.51Z"/>
      <path class="cls-2" d="M117.05,11.26c0-7.17,3.78-11.26,10.69-11.26s10.69,4.1,10.69,11.26v23.29c0,7.17-3.78,11.26-10.69,11.26s-10.69-4.1-10.69-11.26V11.26ZM124.09,35.01c0,3.2,1.41,4.42,3.65,4.42s3.65-1.22,3.65-4.42V10.81c0-3.2-1.41-4.42-3.65-4.42s-3.65,1.22-3.65,4.42v24.19Z"/>
      <path class="cls-1" d="M159.93,45.31h-7.04V.51h7.04v19.2h8V.51h7.17v44.8h-7.17v-19.2h-8v19.2Z"/>
      <path class="cls-1" d="M187.26,19.39h9.66v6.4h-9.66v13.12h12.16v6.4h-19.2V.51h19.2v6.4h-12.16v12.48Z"/>
      <path class="cls-1" d="M226.56,45.31h-7.1l-1.22-8.13h-8.64l-1.22,8.13h-6.46L209.08.51h10.3l7.17,44.8ZM210.49,31.1h6.78l-3.33-22.65h-.13l-3.33,22.65Z"/>
      <path class="cls-1" d="M229.82.51h7.04v38.4h11.58v6.4h-18.62V.51Z"/>
      <path class="cls-1" d="M246.27.51h21.76v6.4h-7.36v38.4h-7.04V6.91h-7.36V.51Z"/>
      <path class="cls-1" d="M278.14,45.31h-7.04V.51h7.04v19.2h8V.51h7.17v44.8h-7.17v-19.2h-8v19.2Z"/>
    </g>
  </g>
</svg>